<?xml version="1.0" encoding="utf-8"?>
<!-- Generator: Adobe Illustrator 15.0.2, SVG Export Plug-In . SVG Version: 6.00 Build 0)  -->
<!DOCTYPE svg PUBLIC "-//W3C//DTD SVG 1.1//EN" "http://www.w3.org/Graphics/SVG/1.1/DTD/svg11.dtd">
<svg version="1.1" id="hatenablog-logo" xmlns="http://www.w3.org/2000/svg" xmlns:xlink="http://www.w3.org/1999/xlink" x="0px"
	 y="0px" width="300px" height="300px" viewBox="0 0 300 300" enable-background="new 0 0 300 300" xml:space="preserve">
<g>
	<g>
		<path fill="#333333" d="M149.999,248.909c-54.537,0-98.906-44.367-98.906-98.909c0-54.537,44.369-98.909,98.906-98.909
			c54.545,0,98.908,44.372,98.908,98.909C248.907,204.542,204.544,248.909,149.999,248.909z M149.999,63.671
			c-47.601,0-86.33,38.723-86.33,86.329c0,47.605,38.729,86.332,86.33,86.332c47.61,0,86.338-38.727,86.338-86.332
			C236.337,102.394,197.609,63.671,149.999,63.671z"/>
	</g>
	<path fill="#333333" d="M161.52,101.16c-4.832-9.785-7.783-19.3-9.273-24.845v70.055c2.447,0.917,4.197,3.257,4.197,6.021
		c0,3.559-2.887,6.442-6.443,6.442c-3.56,0-6.443-2.885-6.443-6.442c0-2.896,1.925-5.317,4.558-6.131V76.241
		c-1.485,5.531-4.438,15.092-9.293,24.919c-7.571,15.314-17.009,28.823-17.009,28.823l6.036,82.598c0,0,5.736,6.401,22.31,6.41
		c0.007,0,0.007,0,0.013,0c0.005,0,0.005,0,0.01,0c16.573-0.009,22.312-6.41,22.312-6.41l6.035-82.598
		C178.527,129.983,169.089,116.475,161.52,101.16z"/>
</g>
</svg>
